<?xml version="1.0" encoding="utf-8"?>
<!-- Generator: Adobe Illustrator 28.0.0, SVG Export Plug-In . SVG Version: 6.00 Build 0)  -->
<svg version="1.1" id="Capa_1" xmlns="http://www.w3.org/2000/svg" xmlns:xlink="http://www.w3.org/1999/xlink" x="0px" y="0px"
	 viewBox="0 0 397.7 218" style="enable-background:new 0 0 397.7 218;" xml:space="preserve">
<style type="text/css">
	.st0{fill:#0D0368;}
	.st1{fill:#FFFFFF;}
	.st2{fill:#010D49;}
</style>
<rect x="59.9" y="98.3" class="st0" width="149.1" height="6.4"/>
<rect x="189.8" y="160.2" class="st0" width="149.1" height="6.4"/>
<rect x="189.8" y="160.2" class="st0" width="149.1" height="6.4"/>
<rect x="22.1" y="199.4" class="st0" width="96.1" height="3.6"/>
<rect x="22.1" y="199.4" class="st0" width="96.1" height="3.6"/>
<rect x="275" y="199.4" class="st0" width="98" height="3.6"/>
<rect x="275" y="199.4" class="st0" width="98" height="3.6"/>
<g>
	<g>
		<path class="st1" d="M119,159.3c-0.5,0-0.9-0.2-1.6-0.4c-3.2-1.4-4.4-5.4-4.9-16.2v-3c0-6.7,0.5-16.7,1.2-23.5
			c-2.7,3.1-6.5,8.5-9.7,14.2c-2.2,3.9-3.6,5.4-5.2,5.4c-2.4,0-4.4-1.7-5.2-4.3c-0.2-0.8-0.8-3.4-1.2-6c-0.4-2.3-0.7-4.1-1-5.4
			c-0.9,4.4-2.2,11.9-2.6,14.8c-0.3,1.8-0.6,6.6-0.8,11.1c-0.1,4.2-0.4,8-0.4,8.5v0.1c-0.2,0.9-1.1,1.5-2.2,1.5
			c-1,0-2.1-0.4-2.9-1.1l-0.9-0.7c-0.2-0.2-0.4-0.5-0.4-0.8l0.1-1.9c0.4-11,0.6-15.6,2.8-28.5c1.8-9.8,2.2-11.6,3.6-13.1
			c0.7-0.7,2.1-0.8,2.5-0.8c0.8,0,1.5,0.2,2.2,0.4c3.6,1.7,5.5,11.4,6,14.4l0.5,2.5c0.3-0.4,0.6-1,1.1-1.7c5.5-9,11-15.8,14-17.4
			c0.6-0.3,1.3-0.5,1.9-0.5c1.1,0,2.2,0.4,3,1.3c1.2,1.2,1.5,2.2,1.5,4.8c0,1.6-0.1,3.6-0.2,6.2c-0.7,10-1,17.2-1,22.4
			c0,6.8,0.5,11.1,1.6,13.5c0.5,1.1,0.7,1.7,0.7,2.2c0,1.1-0.8,1.5-1.1,1.6C119.8,159.2,119.4,159.3,119,159.3z"/>
		<path class="st2" d="M115.8,108c0.8,0,1.6,0.3,2.3,1c0.9,0.9,1.2,1.6,1.2,4.1c0,1.4-0.1,3.3-0.2,6.2c-0.7,9.5-1,16.9-1,22.5
			c0,7.1,0.5,11.4,1.7,13.9c0.4,0.9,0.6,1.4,0.6,1.8c0,0.4-0.2,0.5-0.5,0.7c-0.4,0.2-0.5,0.2-0.8,0.2s-0.6-0.1-1.2-0.4
			c-2.8-1.2-3.9-5.3-4.3-15.3v-3c0-8.1,0.7-20.1,1.5-26.4c-2.7,2.4-7.9,9.6-11.9,16.6c-2,3.5-3.3,4.9-4.3,4.9c-2,0-3.6-1.4-4.3-3.6
			c-0.2-0.9-0.8-3.4-1.2-5.8c-0.9-5.6-1.8-8.9-2.1-8.9l-0.1,0.1c-0.4,0.9-2.8,14.4-3.3,18.3c-0.3,1.9-0.6,6.9-0.8,11.1
			c-0.1,4.3-0.4,8-0.4,8.4c-0.1,0.5-0.6,0.7-1.2,0.7c-0.7,0-1.5-0.3-2.2-0.9l-0.9-0.8c0.5-12.4,0.5-16.7,2.9-30.2
			c1.8-9.7,2.2-11.4,3.3-12.6c0.3-0.3,1-0.5,1.7-0.5c0.6,0,1.2,0.1,1.8,0.4c2,0.9,4.1,6.2,5.5,13.6l0.9,4.7c0.2,0,1.2-1.5,2.5-3.6
			c5.3-8.7,10.8-15.5,13.6-17C114.8,108.1,115.3,108,115.8,108 M115.8,106c-0.8,0-1.6,0.2-2.3,0.6c-3.8,2-9.9,10.4-14.1,17.3
			c-0.9-4.9-2.8-13.3-6.6-15c-0.8-0.4-1.7-0.5-2.6-0.5c-0.6,0-2.2,0.1-3.1,1.1c0,0,0,0-0.1,0.1c-1.5,1.7-1.9,3.4-3.8,13.6
			c-2.3,12.9-2.4,17.5-2.9,28.6l-0.1,1.9c0,0.6,0.2,1.2,0.7,1.6l0.9,0.7c1,0.9,2.2,1.4,3.5,1.4c1.9,0,2.9-1.1,3.2-2.2
			c0-0.1,0-0.1,0-0.2c0.1-0.6,0.3-4.5,0.4-8.6c0.2-2.9,0.5-8.9,0.8-10.9c0,0,0,0,0-0.1c0.2-1.9,0.9-5.8,1.6-9.6c0,0.1,0,0.1,0,0.2
			c0.3,2.3,0.9,4.9,1.2,6v0.1c1,3.1,3.3,5,6.2,5c2.3,0,4-2.3,6.1-5.9c2.4-4.3,5.2-8.4,7.5-11.5c-0.5,6.5-0.9,14.6-0.9,20.3v3v0.1
			c0.4,9.7,1.4,15.3,5.5,17c0.8,0.3,1.3,0.5,2,0.5s1.2-0.2,1.7-0.4c1.4-0.7,1.6-1.7,1.6-2.5s-0.3-1.7-0.8-2.7c-1-2.2-1.5-6.4-1.5-13
			c0-5.2,0.3-12.3,1-22.3c0.2-2.6,0.2-4.6,0.2-6.3c0-2.5-0.3-4-1.8-5.5C118.4,106.5,117.2,106,115.8,106L115.8,106z"/>
	</g>
	<g>
		<path class="st1" d="M130,154.9c-1.2,0-2.9-0.6-3.5-1.6c-1.2-1.8-1.3-9.9-1.3-12.3c0-2.1,0.1-4.1,0.2-6.2c0.2-3.4,0.4-4.2,1.1-4.9
			c0.2-0.2,1-0.9,1.8-0.9h0.1c1.1,0,2.9,0.8,3.6,1.8c0.3,0.4,0.6,0.8,0.6,1.5v0.1l-0.2,1.2c-0.3,1.4-0.5,4.7-0.5,8.4
			c0,2.1,0.1,4.2,0.2,6.1v0.8c0,1.2,0.1,2.2,0.1,2.9c0,1.6-0.1,2-0.3,2.2C131.6,154.7,130.9,154.9,130,154.9z M130.5,127.5
			c-0.5,0-1-0.2-1.8-0.6c-1.7-0.8-2.1-2-2.1-2.9c0-0.6,0.1-1.1,0.3-1.5c0.6-1.4,1.7-2.3,3.1-2.3c0.9,0,1.9,0.4,2.6,1.2
			c0.5,0.4,1.1,1.1,1.1,2.1c0,0.7-0.3,1.4-1,2.4C132.2,126.7,131.5,127.5,130.5,127.5z"/>
		<path class="st2" d="M130.1,121.2c0.6,0,1.3,0.3,1.9,0.9c0.5,0.5,0.8,0.9,0.8,1.4s-0.3,1.1-0.8,1.8c-0.6,0.8-0.9,1.2-1.5,1.2
			c-0.3,0-0.7-0.2-1.3-0.5c-1.1-0.5-1.5-1.1-1.5-2c0-0.4,0.1-0.7,0.2-1.1C128.3,121.8,129.2,121.2,130.1,121.2 M128.4,130
			c0.8,0,2.4,0.7,2.8,1.4c0.3,0.4,0.4,0.5,0.4,0.9l-0.2,1.2c-0.3,1.4-0.5,4.8-0.5,8.5c0,2.1,0.1,4.2,0.2,6.2
			c0.1,1.5,0.1,2.7,0.1,3.7s-0.1,1.5-0.1,1.6c-0.2,0.4-0.7,0.5-1.2,0.5c-1,0-2.3-0.5-2.7-1.1c-0.7-1.1-1.1-6.2-1.1-11.8
			c0-2,0.1-4.1,0.2-6.1c0.2-3.1,0.4-3.9,0.8-4.3c0.4-0.4,0.8-0.7,1.1-0.7L128.4,130 M130.1,119.2c-1.8,0-3.3,1.1-4,3
			c-0.3,0.6-0.4,1.2-0.4,1.9c0,1,0.3,2.7,2.7,3.8c0.2,0.1,0.3,0.2,0.5,0.2c-0.1,0-0.3,0-0.4,0h-0.1c-1.2,0-2.2,0.9-2.5,1.2
			c-1,1-1.2,2.3-1.4,5.6c-0.1,2-0.2,4.1-0.2,6.2c0,4,0.2,10.9,1.4,12.8c0.8,1.3,2.9,2.1,4.4,2.1c1.2,0,2.2-0.4,2.8-1.2
			c0.5-0.6,0.5-1.3,0.5-2.8c0-0.8,0-1.8-0.1-3v-0.8c-0.1-1.9-0.2-4-0.2-6.1c0-4.2,0.2-7.1,0.4-8.1v-0.1l0.2-1.2c0-0.1,0-0.2,0-0.3
			c0-1.1-0.5-1.7-0.8-2.1c-0.5-0.7-1.4-1.3-2.4-1.7l0,0c1.6,0,2.4-1.1,3.1-2c0.9-1.1,1.2-2.1,1.2-3c0-1.4-0.8-2.3-1.5-2.9
			C132.4,119.7,131.2,119.2,130.1,119.2L130.1,119.2z"/>
	</g>
	<g>
		<path class="st1" d="M140.7,153.8c-0.8,0-1.5-0.2-2-0.5c-1.2-0.6-2.1-1.3-2.3-2.6c0-0.1,0-0.1,0-0.2V150c0-1.5,1.1-1.6,1.4-1.6
			c0.2,0,0.4,0,0.6,0.1c0.3,0,0.5,0.1,0.8,0.1s0.6,0,0.9-0.2l0.3-0.2c1.3-0.8,3.8-2.3,4.7-3.6c0.2-0.3,0.3-0.6,0.3-0.9
			c0-1-2.2-1.9-4.2-2.7c-3.2-1.3-7.1-2.8-7.1-6.6c0-2.2,2.6-5.3,5-7.3s4.5-2.9,6.6-2.9c1.6,0,3.2,0.7,4.7,2c1.2,1.1,2.1,2.8,2.1,4
			c0,0.6-0.3,1-0.5,1.2c-0.4,0.5-1,0.8-1.7,0.8c-1.3,0-2.7-1-3.8-1.9l-0.6,0.3c-2.1,1-3.8,3.2-4.3,4.1c0.2,0.2,0.6,0.5,1.3,0.7
			c4.4,1.6,9.3,4,9.3,8.3c0,0.9-0.2,1.7-0.6,2.5c-0.9,2.3-5.6,6.2-7.9,7C142.9,153.5,141.8,153.8,140.7,153.8z"/>
		<path class="st2" d="M145.8,125.3c1.4,0,2.8,0.6,4.1,1.7c1.1,0.9,1.8,2.4,1.8,3.3c0,0.2-0.1,0.4-0.2,0.5c-0.3,0.4-0.7,0.5-1,0.5
			c-1.2,0-2.6-1.2-3.6-2l-1.2,0.5c-2.9,1.4-5.1,4.7-5.1,5.2v0.1c0.2,0.1,0.7,1,2.2,1.4c4.7,1.8,8.5,4,8.5,7.3c0,0.7-0.1,1.3-0.5,2
			c-0.8,2-5.1,5.7-7.3,6.5c-0.9,0.3-1.9,0.5-2.7,0.5c-0.6,0-1.1-0.1-1.5-0.4c-1.2-0.7-1.7-1.1-1.8-1.9V150c0-0.5,0.1-0.6,0.4-0.6
			c0.3,0,0.8,0.2,1.5,0.2c0.4,0,0.9-0.1,1.4-0.4c1.5-0.9,4.3-2.5,5.3-4.1c0.4-0.5,0.5-1,0.5-1.4c0-3.7-11.3-3.7-11.3-9.2
			c0-1.5,2-4.3,4.7-6.6C142,126.2,143.9,125.3,145.8,125.3 M145.8,123.3c-2.3,0-4.6,1-7.2,3.1c-2.5,2.1-5.4,5.4-5.4,8.1
			c0,4.4,4.5,6.2,7.8,7.5c1.2,0.5,3.2,1.3,3.5,1.8c0,0.1-0.1,0.2-0.1,0.3l0,0c-0.7,1.1-3.2,2.6-4.3,3.3l-0.3,0.2c0,0-0.1,0-0.1,0.1
			c-0.1,0.1-0.1,0.1-0.3,0.1s-0.4,0-0.7-0.1c-0.3,0-0.5-0.1-0.8-0.1c-1.2,0-2.4,0.8-2.4,2.6v0.5c0,0.1,0,0.2,0,0.3
			c0.3,1.8,1.5,2.7,2.8,3.3c0.7,0.4,1.6,0.6,2.5,0.6c1.2,0,2.4-0.3,3.3-0.6c0,0,0,0,0.1,0c2.6-0.9,7.4-4.9,8.5-7.6
			c0.4-0.9,0.6-1.8,0.6-2.8c0-4.9-5.3-7.4-9.8-9.2c-0.1,0-0.1,0-0.2-0.1h-0.1c0.7-0.9,2-2.2,3.4-2.9h0.1c1.1,0.8,2.4,1.7,3.9,1.7
			c1,0,1.9-0.4,2.5-1.1c0.3-0.4,0.7-1,0.7-1.9c0-1.5-1-3.5-2.4-4.8C149.5,124,147.6,123.3,145.8,123.3L145.8,123.3z"/>
	</g>
	<g>
		<path class="st1" d="M177,153.3c-0.1,0-0.3,0-0.4-0.1c-2-0.8-2-2.6-2-6.5V145c0-7.9,1.6-28.9,3.5-31c0.6-0.6,1-0.7,2.2-1.1
			c0.1,0,0.2,0,0.3,0h0.1l0.6,0.1c0.1,0,0.1,0,0.2,0c0.7,0.2,1.6,0.7,2.1,1.3c0.3,0.3,0.6,0.7,0.6,1.4c0,0.4-0.1,0.8-0.4,1.3
			l-0.1,0.2c-1.2,2.3-3.6,21.1-3.6,30.5l0.3,2.7v0.1c0,1,0,2.5-1.5,2.6h-0.1c-0.1,0-0.2,0-0.2,0h-0.1c-0.3,0.1-0.6,0.2-1.1,0.2
			L177,153.3L177,153.3z"/>
		<path class="st2" d="M180.7,113.9l0.6,0.1c0.6,0.2,1.3,0.6,1.6,0.9c0.2,0.3,0.4,0.5,0.4,0.8c0,0.2-0.1,0.5-0.4,1
			c-1.4,2.6-3.7,22.2-3.7,30.9l0.3,2.8c0,1.5-0.2,1.6-0.6,1.6l-0.2,0.1c-0.3,0-0.7,0.2-1.2,0.2H177c-1.2-0.5-1.4-1.4-1.4-5.6V145
			c0.1-9.7,1.8-28.7,3.3-30.3C179.3,114.3,179.5,114.2,180.7,113.9 M180.7,111.9c-0.2,0-0.3,0-0.5,0.1c-1.2,0.3-1.9,0.6-2.6,1.3
			c0,0,0,0-0.1,0.1c-0.5,0.6-1.5,1.6-2.7,13.2c-0.7,6.4-1.1,13.6-1.1,18.4v1.7c0,4.1,0,6.4,2.6,7.5c0.2,0.1,0.5,0.2,0.8,0.2h0.3
			c0.6,0,1.1-0.1,1.4-0.2l0,0c0.1,0,0.2,0,0.3,0l0,0c2.3-0.2,2.3-2.7,2.3-3.6c0-0.1,0-0.1,0-0.2l-0.3-2.7c0-9,2.4-27.7,3.5-29.9
			l0.1-0.1l0.1-0.2c0.2-0.5,0.5-1,0.5-1.7c0-1-0.5-1.7-0.8-2c-0.7-0.8-1.8-1.4-2.6-1.6c-0.1,0-0.2-0.1-0.4-0.1l-0.6-0.1
			C180.8,111.9,180.7,111.9,180.7,111.9L180.7,111.9z"/>
	</g>
	<g>
		<path class="st1" d="M195.2,152.2c-2.3,0-3.5-0.1-4.2-0.3c-3.6-1.2-5.8-3.3-6.5-6.3l-0.1-0.4c0-0.1,0-0.1,0-0.2
			c0-1.1,0.8-1.9,1.9-1.9h0.1l0.5,0.1c0.1,0,0.2,0,0.3,0.1c0.8,0.3,1.4,1,1.9,2c0.9,1.1,1.5,1.4,4.1,1.8c2.1-0.1,5.7-0.9,7.4-5.4
			c0,0,0-0.1,0.1-0.1c0.5-1.1,1-3.7,1.1-4.8v-0.2c0-2.7-3-6.3-6.2-6.3c-1,0-2.2,0.2-3.8,0.4c-0.7,0.1-1.3,0.2-1.8,0.2
			c-2,0-3.1-0.8-4.4-2.9c0,0,0-0.1-0.1-0.1c-0.1-0.3-0.3-0.8-0.3-1.4c0-0.8,0.3-2.2,0.9-4.9c1.3-5,1.5-6,2.1-6.8
			c0.1-0.1,0.2-0.2,0.3-0.3c0.4-0.3,1-0.4,3.1-0.4h4.3c7.3,0.3,9.9,0.6,11,1.4c1,0.6,1.5,3.2,1.5,3.8c0,0.7-0.3,1.1-0.5,1.4
			c-0.5,0.5-1,0.5-1.6,0.5l-2-0.2c-0.9-0.1-2.8-0.1-4.8-0.2c-1.7,0-3.6-0.1-5.2-0.2h-1.4c-0.2,1.1-0.6,3.5-0.9,4.9l2.6-0.1
			c3.8,0,6.8,1.2,9.3,3.7c2.6,2.6,4,6,4,9.5c0,3.7-1.6,7.2-4.4,10.1c-0.9,0.9-2.4,2-3.4,2.5C198.5,151.9,197.8,152.1,195.2,152.2
			C195.3,152.2,195.2,152.2,195.2,152.2z"/>
		<path class="st2" d="M195.9,115.2c6.7,0.2,9.5,0.5,10.4,1.2c0.5,0.4,1.1,2.4,1.1,3c0,0.2-0.1,0.5-0.2,0.7s-0.4,0.2-0.9,0.2
			l-1.9-0.2c-1.7-0.2-6.5-0.2-10-0.4h-1.5c-0.4,0-0.7,0-0.8,0.1c-0.2,0.1-1.2,6.5-1.2,6.9l3.8-0.2c3.4,0,6.2,1.1,8.5,3.4
			c2.5,2.5,3.7,5.6,3.7,8.8c0,3.3-1.4,6.6-4.1,9.4c-0.8,0.8-2.2,1.8-3.1,2.3c-1.4,0.7-2,0.8-4.4,0.9c-1.8,0-3.2-0.1-3.9-0.3
			c-3.3-1.1-5.2-2.9-5.9-5.6l-0.1-0.4c0-0.6,0.4-0.9,0.9-0.9l0.5,0.1c0.5,0.2,1,0.7,1.5,1.7c1.2,1.4,2.1,1.8,4.9,2.3
			c2.3-0.1,6.5-1,8.4-6c0.8-1.5,1.2-5.2,1.2-5.2v-0.2c0-3.2-3.4-7.3-7.2-7.3c-1.1,0-2.4,0.2-3.9,0.4c-0.7,0.1-1.2,0.2-1.7,0.2
			c-1.5,0-2.4-0.5-3.5-2.4c-0.1-0.3-0.2-0.6-0.2-1c0-0.7,0.2-2,0.8-4.7c1.2-4.7,1.5-5.8,1.9-6.4c0.2-0.1,0.7-0.2,2.5-0.2h4.4
			 M195.9,113.2h-4.3c-2.1,0-3,0.1-3.7,0.6c-0.2,0.1-0.4,0.3-0.5,0.5c-0.6,0.9-0.9,2.1-2.2,7.1c0,0,0,0,0,0.1
			c-0.6,2.8-0.9,4.2-0.9,5.1c0,0.8,0.2,1.4,0.4,1.8c0,0.1,0.1,0.2,0.1,0.3c1.4,2.4,2.9,3.4,5.2,3.4c0.6,0,1.2-0.1,2-0.2
			c1.4-0.2,2.6-0.4,3.6-0.4c2.5,0,5.2,3.1,5.2,5.3v0.1c-0.2,1.4-0.6,3.6-1,4.3c0,0.1-0.1,0.2-0.1,0.2c-1.4,3.9-4.5,4.6-6.4,4.7
			c-2.2-0.3-2.7-0.6-3.3-1.4c-0.6-1.2-1.4-1.9-2.3-2.4c-0.2-0.1-0.4-0.1-0.6-0.2l-0.5-0.1c-0.1,0-0.1,0-0.2,0
			c-1.7,0-2.9,1.2-2.9,2.9c0,0.1,0,0.2,0,0.3l0.1,0.4v0.1c0.8,3.4,3.2,5.7,7.2,7c0.8,0.3,2.1,0.4,4.5,0.4c2.7-0.1,3.6-0.3,5.3-1.1
			c1.2-0.6,2.8-1.8,3.7-2.7c3-3,4.7-6.8,4.7-10.8c0-3.8-1.5-7.4-4.3-10.2c-2.6-2.7-5.9-4-9.9-4h-0.1l-1.4,0.1c0.2-0.9,0.3-2,0.5-2.8
			h0.6c1.6,0.1,3.5,0.1,5.2,0.2c2,0,3.9,0.1,4.7,0.2l1.9,0.2c0.1,0,0.1,0,0.2,0c0.4,0,1.5,0,2.3-0.8c0.5-0.5,0.8-1.3,0.8-2.1
			c0-0.4-0.4-3.5-1.9-4.6C206.1,113.8,203.6,113.5,195.9,113.2L195.9,113.2L195.9,113.2z"/>
	</g>
	<g>
		<path class="st1" d="M246.5,153.9c-1.3,0-2.3-0.7-2.5-1.7c-0.6-3.1-0.9-6.2-1.3-9.3c-0.2-1.8-0.4-3.6-0.7-5.4l-8.1,1.1l-2.8,12.6
			c-0.1,0.4-0.5,0.7-0.9,0.8l-1.4,0.1c-2.6,0-3.1-1.7-3.1-2.7l-0.1-0.5v-0.1c0-2,0.8-5.6,1.3-8.3c0.1-0.5,0.2-1,0.3-1.4h-0.1
			c-1.3-0.1-2.4-1.3-2.4-2.5c0-0.7,0.4-2.4,3.8-2.9c0.4-0.7,1.1-3.7,1.4-4.9c2.5-9.7,5.7-16.6,7.7-19.1c0.9-1.2,1.9-1.9,3-1.9
			c0.4,0,0.8,0.1,1.2,0.2c2.8,1.4,3.4,3.9,5.2,17.1l0.9,6.1h0.3c0.2,0,0.4,0.1,0.6,0.2c0.8,0.5,1.4,1.7,1.4,2.8
			c0,0.5-0.2,0.9-0.3,1.2c0,0.1-0.1,0.1-0.1,0.2c-0.3,0.4-0.8,0.6-1.3,0.7c0.1,0.7,0.2,1.5,0.3,2.3c0.4,3.9,1.1,10.4,1.6,11.7
			c0,0.1,0,0.2,0,0.3v0.2C250.5,152.9,248.1,153.9,246.5,153.9z M240.2,118.4c-0.3,0.9-0.8,2.1-1.3,3.7l-0.7,2.1
			c-0.7,2.3-2.1,6.6-2.7,8.7l6-0.6c-0.1-0.8-0.2-1.9-0.3-3.2C241,126.1,240.5,121.5,240.2,118.4z"/>
		<path class="st2" d="M240.8,108.9c0.3,0,0.5,0.1,0.8,0.2c2.3,1.1,2.8,3.4,4.6,16.3l1.1,7h1.2c0.5,0.4,0.9,1.2,0.9,2
			c0,0.3-0.1,0.5-0.2,0.8c-0.2,0.3-1.2,0.4-1.7,0.5c0.4,3.5,1.4,13.3,2,15.2v0.2c0,1.2-1.7,2-2.9,2c-0.7,0-1.4-0.2-1.5-0.9
			c-0.9-5.2-1.3-10.4-2.1-15.6l-9.8,1.4l-2.9,13.3l-1.4,0.1c-1.1,0-2-0.4-2.1-1.8l-0.1-0.5c0-2.8,1.8-9.8,1.8-10.5
			c0-0.1-0.7-0.1-1.1-0.2c-0.8-0.1-1.5-0.8-1.5-1.5s0.8-1.6,3-1.9c0.6-0.1,0.8-0.2,2.1-5.6c2.6-10.1,5.7-16.5,7.5-18.7
			C239.1,109.6,239.9,108.9,240.8,108.9 M234.2,134l8.5-0.9c-0.3-2.7-1.7-18.1-2-18.1c-0.2,0-1.2,2.1-2.7,6.8
			C237.1,124.6,234.2,133.4,234.2,134 M240.8,106.9c-1.4,0-2.7,0.8-3.8,2.3c-1.9,2.4-5.2,8.9-7.9,19.5c-0.5,2.1-0.9,3.6-1.1,4.3
			c-3.8,0.7-4.1,3-4.1,3.8c0,1.5,1,2.8,2.3,3.3c0,0.2-0.1,0.3-0.1,0.5c-0.7,3.4-1.4,6.6-1.4,8.5c0,0.1,0,0.1,0,0.2l0.1,0.5
			c0.2,2.2,1.7,3.6,4.1,3.6c0.1,0,0.1,0,0.2,0l1.4-0.1c0.9-0.1,1.6-0.7,1.8-1.6l2.6-11.9l6.4-0.9c0.2,1.5,0.4,3,0.5,4.4
			c0.4,3,0.7,6.2,1.3,9.3c0.3,1.5,1.6,2.5,3.4,2.5c2.4,0,4.9-1.6,4.9-4v-0.2c0-0.2,0-0.4-0.1-0.6c-0.4-1.2-1.1-7.9-1.5-11.5
			c-0.1-0.5-0.1-1-0.2-1.5c0.4-0.2,0.8-0.4,1-0.8c0.1-0.1,0.2-0.2,0.2-0.3c0.2-0.3,0.5-0.9,0.5-1.7c0-1.4-0.8-2.9-1.8-3.6
			c-0.2-0.1-0.4-0.2-0.6-0.3l-0.8-5.4c-1.8-13-2.3-16.1-5.6-17.8c-0.1,0-0.1,0-0.2-0.1C242,107,241.5,106.9,240.8,106.9L240.8,106.9
			z M236.9,131.7c0.7-2.2,1.7-5.4,2.3-7.2c0.2-0.5,0.3-1,0.5-1.4c0.2,2.2,0.4,4.5,0.6,6.1c0.1,0.8,0.1,1.5,0.2,2.2L236.9,131.7
			L236.9,131.7z"/>
	</g>
	<g>
		<path class="st1" d="M258.1,152.8c-0.9-0.1-2-0.5-2.5-0.9c-1.4-1.1-1.8-2.1-1.8-5l0.1-3.2c0.3-6.7,1.8-18,2.5-19
			c0.4-0.5,1.1-0.9,1.9-0.9c1.4,0,3.5,1.2,3.8,2.5c0,0.1,0,0.1,0,0.2c0,0.3-0.1,0.7-0.2,1.5c-0.3,1.3-0.7,3.5-0.8,5.9
			c0,0-0.3,3.6-0.3,4.3c0.2-0.3,0.3-0.7,0.4-0.9c1.8-3.8,5.1-10.4,7.5-12.9c0.9-0.9,1.4-1.5,2.5-1.5h0.1l0.6,0.1
			c5.3,0.7,5.3,7.7,5.3,11.1l-0.1,6.8c0,1.7,0.1,2.8,0.3,3.7c0.1,0.7,0.2,2,0.5,2.3c0.8,0.1,1.4,0.9,1.5,1.8v0.1v0.2
			c0,1.1-0.8,2.3-2.5,2.4l-0.7,0.1c-2.4,0-3.9-1.5-4.8-4.6c-0.6-2.4-0.8-8.2-1-12.9c0-0.3,0-0.6,0-0.9c-1.1,1.8-2.3,3.8-4.4,8.3
			c-0.9,1.8-1.6,3.4-2.3,4.7c-2.6,5.4-3.2,6.7-5.1,6.7L258.1,152.8L258.1,152.8z M269.7,120c-1.2,0-2.8-1.4-3.5-2.6
			c-0.1,0.1-0.4,0.5-0.4,0.5c-0.9,1.2-1.7,2.1-2.8,2.1c-0.7,0-1.2-0.4-1.7-0.8c-0.6-0.6-0.9-1.5-0.9-2.1c0-1.4,2.7-5,3.9-5.5h0.1
			l0.6-0.1c0.1,0,0.1,0,0.2,0c1.3,0,2.5,0.7,3.5,1.8c0.2,0.2,0.3,0.3,0.4,0.4c0.3-0.3,0.7-0.9,0.9-1.3c1.3-1.9,1.9-1.9,2.2-1.9
			c1.3,0,2.8,1.7,2.8,3.1C275.1,115.7,271.7,120,269.7,120z"/>
		<path class="st2" d="M272.3,111.6c0.7,0,1.8,1.2,1.8,2.1c0,1.6-3.1,5.4-4.4,5.4c-0.8,0-2.3-1.3-2.7-2.4c-0.2-0.4-0.5-0.9-0.6-0.9
			s-0.7,0.8-1.4,1.6c-0.8,1.2-1.4,1.7-2,1.7c-0.3,0-0.7-0.2-1.1-0.6s-0.5-0.9-0.5-1.3c0-0.9,2.4-4.2,3.3-4.5l0.6-0.1
			c0.9,0,1.9,0.5,2.7,1.5c0.5,0.6,0.9,0.9,1.2,0.9c0.4,0,0.8-0.6,1.7-1.9C271.4,112.2,272,111.6,272.3,111.6 M271.1,123.9l0.6,0.1
			c3.8,0.5,4.4,5.1,4.4,10.1l-0.1,6.8c0,1.5,0.1,2.8,0.3,3.9c0.2,1.5,0.4,2.9,1.3,3c0.4,0.1,0.7,0.4,0.7,0.9v0.2
			c0,0.7-0.5,1.4-1.6,1.4l-0.7,0.1c-1.4,0-2.8-0.6-3.7-3.9c-0.8-3.1-0.9-12.9-1.2-16.6c-2,3-3,4.4-6.2,11
			c-4.4,9.1-4.9,10.8-6.5,10.8h-0.3c-0.7-0.1-1.5-0.4-2-0.7c-1-0.8-1.4-1.4-1.4-4.1l0.1-3.2c0.3-7.5,1.9-17.9,2.3-18.4
			c0.2-0.3,0.7-0.5,1.1-0.5c1.1,0,2.6,0.9,2.8,1.7v0.1c0,0.5-0.8,3.7-1.1,7.3c-0.2,3.4-0.4,5.6-0.4,6.8c0,0.8,0.1,1.2,0.2,1.2
			c0.3,0,1-1.5,2.2-4.1c2.7-5.8,5.5-10.7,7.3-12.6C270.2,124.1,270.5,123.9,271.1,123.9 M272.3,109.6c-0.7,0-1.6,0.3-3,2.3
			c0,0,0,0,0,0.1s-0.1,0.2-0.2,0.3c-1.1-1.1-2.4-1.7-3.8-1.7c-0.1,0-0.3,0-0.4,0l-0.6,0.1c-0.1,0-0.2,0-0.2,0.1
			c-1.7,0.6-4.6,4.6-4.6,6.4c0,0.7,0.3,1.9,1.1,2.7l0.1,0.1c0.6,0.5,1.4,1.1,2.4,1.1c1.4,0,2.4-0.9,3.2-1.9c1,1.1,2.3,1.9,3.5,1.9
			c2.7,0,6.4-5.1,6.4-7.4C276.1,111.9,274.2,109.6,272.3,109.6L272.3,109.6z M271.1,121.9c-1.5,0-2.4,0.9-3.2,1.8
			c-1.7,1.8-3.9,5.6-5.8,9.3c0.2-1.9,0.5-3.7,0.7-4.8c0.2-0.9,0.2-1.3,0.2-1.7v-0.1c0-0.2,0-0.3-0.1-0.4c-0.4-1.9-2.9-3.3-4.7-3.3
			c-1,0-2,0.5-2.6,1.2c-1.2,1.5-2.6,14.8-2.7,19.6l-0.1,3.2c0,0,0,0,0,0.1c0,2.8,0.3,4.3,2.1,5.7c0,0,0,0,0.1,0
			c0.6,0.5,1.9,1,2.9,1.1c0.1,0,0.1,0,0.2,0h0.3c2.5,0,3.3-1.7,6-7.2c0.6-1.3,1.3-2.8,2.2-4.7c1.1-2.3,2-4,2.7-5.3
			c0.2,4.1,0.4,8.4,0.9,10.5c1,3.6,2.9,5.4,5.7,5.4c0.1,0,0.1,0,0.2,0l0.7-0.1c2.3-0.1,3.5-1.8,3.5-3.4v-0.2c0-0.1,0-0.1,0-0.2
			c-0.1-1.2-0.8-2.1-1.8-2.5c-0.1-0.4-0.2-1-0.2-1.4c0-0.1,0-0.1,0-0.2c-0.2-1.1-0.3-2.4-0.3-3.5l0.1-6.8c0-3.4,0-11.4-6.1-12.2
			l-0.6-0.1C271.2,121.9,271.1,121.9,271.1,121.9L271.1,121.9z"/>
	</g>
	<g>
		<path class="st1" d="M288.6,153.1c-0.6,0-1.3-0.1-2.1-0.5c-1.9-0.6-4-2.9-4.9-5.3c-0.6-1.5-1-3.9-1-6.5c0-1.8,0.1-3.3,0.4-4.6
			c0.7-3,2-6.9,3.4-8.8c0.6-0.8,1.6-1.9,2.9-1.9c1.2,0,2,0.9,2.9,1.7c0.5,0.5,1.1,1,1.7,1.4c1.8,1.1,3.8,3.4,4.8,5.5
			c0.6,1.3,0.9,2.7,0.9,4.2c0,1.6-0.3,3.3-0.9,5.2c-1.7,5.2-3.6,8-5.9,9C289.9,152.9,289.3,153.1,288.6,153.1z M289.1,133
			c-0.1,0.1-0.7,0.6-1.5,3.9c-0.5,2-0.8,4.3-0.8,6c0,0.8,0.1,1.5,0.2,2c0.3,1.3,0.5,1.9,0.6,2.2c0.1-0.1,0.2-0.2,0.3-0.3
			c1.3-1.3,3.4-6.9,3.4-9.8c0-1.6-0.5-2.8-1.5-3.6C289.4,133.1,289.2,133,289.1,133z"/>
		<path class="st2" d="M287.3,126.5c1.3,0,2.4,2,4.1,3s3.5,3.2,4.4,5.1c0.5,1.1,0.8,2.4,0.8,3.8c0,1.5-0.3,3.1-0.9,4.9
			c-1.6,4.8-3.3,7.5-5.4,8.4c-0.8,0.3-1.2,0.5-1.8,0.5c-0.5,0-1-0.1-1.8-0.4c-1.6-0.5-3.5-2.5-4.3-4.7c-0.6-1.5-0.9-3.8-0.9-6.1
			c0-1.5,0.1-3.1,0.4-4.4c0.8-3.3,2.1-6.8,3.3-8.4C286.1,126.9,286.7,126.5,287.3,126.5 M287.4,148.3c0.3,0,0.7-0.2,1.2-0.7
			c1.6-1.6,3.7-7.5,3.7-10.5c0-1.9-0.7-3.4-1.9-4.4c-0.5-0.4-0.9-0.7-1.3-0.7c-0.9,0-1.7,1.4-2.5,4.7c-0.5,2.1-0.8,4.4-0.8,6.3
			c0,0.9,0.1,1.6,0.2,2.2C286.4,147.4,286.8,148.3,287.4,148.3 M287.3,124.5c-1.7,0-2.9,1.3-3.7,2.4c-1.6,2.1-2.9,6.3-3.6,9.1
			c-0.3,1.4-0.5,3-0.5,4.8c0,2.7,0.4,5.2,1,6.8c1,2.6,3.3,5.1,5.5,5.9c1,0.4,1.7,0.5,2.5,0.5c0.9,0,1.6-0.3,2.5-0.6h0.1
			c2.7-1.2,4.6-4.1,6.5-9.6c0.7-2,1-3.8,1-5.5c0-1.6-0.4-3.2-1-4.6c-1.1-2.3-3.2-4.8-5.2-5.9c-0.5-0.3-1-0.8-1.5-1.3
			C290,125.6,288.9,124.5,287.3,124.5L287.3,124.5z M288,145c0-0.1,0-0.2-0.1-0.2c-0.1-0.4-0.1-1-0.1-1.8c0-1.7,0.3-3.9,0.8-5.8
			c0.4-1.4,0.6-2.2,0.8-2.7c0.6,0.6,0.9,1.5,0.9,2.6C290.3,139.1,289,143,288,145L288,145z"/>
	</g>
	<g>
		<path class="st1" d="M305.7,153.8c-0.8,0-1.5-0.2-2-0.5c-1.2-0.6-2.1-1.3-2.3-2.6c0,0,0-0.1,0-0.2V150c0-1.5,1.1-1.6,1.4-1.6
			c0.2,0,0.4,0,0.6,0.1c0.3,0,0.5,0.1,0.8,0.1s0.6,0,0.9-0.2l0.3-0.2c1.3-0.8,3.8-2.3,4.7-3.6c0.2-0.3,0.3-0.6,0.3-0.9
			c0-1-2.2-1.9-4.2-2.7c-3.2-1.3-7.1-2.8-7.1-6.6c0-2.2,2.6-5.3,5-7.3s4.5-2.9,6.6-2.9c1.6,0,3.2,0.7,4.7,2c1.2,1.1,2.1,2.8,2.1,4
			c0,0.6-0.3,1-0.5,1.2c-0.4,0.5-1,0.8-1.7,0.8c-1.3,0-2.7-1-3.8-1.9l-0.6,0.3c-2.1,1-3.8,3.2-4.3,4.1c0.2,0.2,0.6,0.5,1.3,0.7
			c4.4,1.6,9.3,4,9.3,8.3c0,0.9-0.2,1.7-0.6,2.5c-0.9,2.3-5.6,6.2-7.9,7C307.8,153.5,306.7,153.8,305.7,153.8z"/>
		<path class="st2" d="M310.7,125.3c1.4,0,2.8,0.6,4.1,1.7c1.1,0.9,1.8,2.4,1.8,3.3c0,0.2-0.1,0.4-0.2,0.5c-0.3,0.4-0.7,0.5-1,0.5
			c-1.2,0-2.6-1.2-3.6-2l-1.2,0.5c-2.9,1.4-5.1,4.7-5.1,5.2v0.1c0.2,0.1,0.7,1,2.2,1.4c4.7,1.8,8.5,4,8.5,7.3c0,0.7-0.1,1.3-0.5,2
			c-0.8,2-5.1,5.7-7.3,6.5c-0.9,0.3-1.9,0.5-2.7,0.5c-0.6,0-1.1-0.1-1.5-0.4c-1.2-0.7-1.7-1.1-1.8-1.9V150c0-0.5,0.1-0.6,0.4-0.6
			s0.8,0.2,1.5,0.2c0.4,0,0.9-0.1,1.4-0.4c1.5-0.9,4.3-2.5,5.3-4.1c0.4-0.5,0.5-1,0.5-1.4c0-3.7-11.3-3.7-11.3-9.2
			c0-1.5,2-4.3,4.7-6.6C307,126.2,308.9,125.3,310.7,125.3 M310.7,123.3c-2.3,0-4.6,1-7.2,3.1c-2.5,2.1-5.4,5.4-5.4,8.1
			c0,4.4,4.5,6.2,7.8,7.5c1.2,0.5,3.2,1.3,3.5,1.8c0,0.1-0.1,0.2-0.1,0.3l0,0c-0.7,1.1-3.1,2.6-4.3,3.3l-0.3,0.2c0,0-0.1,0-0.1,0.1
			c-0.1,0.1-0.1,0.1-0.3,0.1c-0.2,0-0.4,0-0.7-0.1c-0.3,0-0.5-0.1-0.8-0.1c-1.2,0-2.4,0.8-2.4,2.6v0.5c0,0.1,0,0.2,0,0.3
			c0.3,1.8,1.5,2.7,2.8,3.3c0.7,0.4,1.6,0.6,2.5,0.6c1.2,0,2.4-0.3,3.3-0.6c0,0,0,0,0.1,0c2.6-0.9,7.4-4.9,8.5-7.6
			c0.4-0.9,0.6-1.8,0.6-2.8c0-4.9-5.3-7.4-9.8-9.2c-0.1,0-0.1,0-0.2-0.1h-0.1c0.7-0.9,2-2.2,3.4-2.9h0.1c1.1,0.8,2.4,1.7,3.9,1.7
			c1,0,1.9-0.4,2.5-1.1c0.3-0.4,0.7-1,0.7-1.9c0-1.5-1-3.5-2.4-4.8C314.4,124,312.6,123.3,310.7,123.3L310.7,123.3z"/>
	</g>
</g>
<g>
	<g>
		<path class="st1" d="M127,212.6c-0.1,0-0.1,0-0.2,0c-1.3-0.5-1.3-1.5-1.3-4.6v-1.3c0-6.5,1.3-21.5,2.6-22.8
			c0.4-0.4,0.7-0.5,1.5-0.7h0.1h0.5c0.6,0.2,1.2,0.5,1.5,0.9c0.2,0.3,0.4,0.5,0.4,0.9c0,0.3-0.1,0.5-0.3,0.8l-0.1,0.1
			c-1,1.8-2.7,16.3-2.7,22.8l0.2,2c0,0.8,0,1.7-0.9,1.7h-0.1h-0.1c0,0-0.1,0-0.2,0c-0.2,0.1-0.4,0.1-0.8,0.1H127V212.6z"/>
		<path class="st2" d="M129.7,183.6h0.4c0.4,0.1,1,0.4,1.2,0.7c0.2,0.2,0.3,0.4,0.3,0.6c0,0.2-0.1,0.4-0.3,0.7
			c-1.1,1.9-2.8,16.5-2.8,23l0.2,2.1c0,1.1-0.1,1.2-0.4,1.2h-0.2c-0.2,0-0.5,0.2-0.9,0.2H127c-0.9-0.4-1-1.1-1-4.2v-1.3
			c0-7.2,1.4-21.4,2.4-22.5C128.6,183.9,128.8,183.8,129.7,183.6 M129.7,182.6c-0.1,0-0.2,0-0.3,0c-0.9,0.2-1.3,0.4-1.7,0.8
			c-1.6,1.7-2.7,18-2.7,23.2v1.3c0,3,0,4.4,1.6,5.1c0.1,0.1,0.3,0.1,0.4,0.1h0.2c0.4,0,0.7-0.1,0.9-0.2h0.1c0.1,0,0.1,0,0.2,0h0.1
			c1.3-0.1,1.3-1.5,1.3-2.2v-0.1l-0.2-2c0-6.8,1.8-20.9,2.7-22.5c0,0,0,0,0-0.1l0.1-0.1c0.2-0.4,0.3-0.7,0.3-1c0-0.6-0.3-1-0.5-1.2
			c-0.4-0.5-1.2-0.9-1.7-1c-0.1,0-0.1,0-0.2,0L129.7,182.6L129.7,182.6L129.7,182.6z"/>
	</g>
	<g>
		<path class="st1" d="M137.7,212.7c-0.8,0-1.1-0.1-2.3-0.7c-1.3-0.8-1.9-1.9-1.9-3.6c0-0.7,0.1-1.6,0.4-2.7
			c0.5-1.8,2.1-5.7,2.7-6.7c0,0,0.2-0.5,0.3-0.6c-0.1-0.1-0.2-0.3-0.3-0.5s-0.2-0.4-0.4-0.6c-0.8-1.8-1.4-3.5-1.6-5.1
			c0-1.1,0.2-2.2,0.7-3.1c0.8-1.5,2.5-3,4.1-4.2c0,0,0.1,0,0.1-0.1c0.9-0.5,1.4-0.6,2.2-0.6h0.6c3.1,0.4,5.5,1.9,6.4,4
			c0.2,0.6,0.3,1.1,0.3,1.7c0,1.4-0.6,3.3-2.3,7.8l-1.5,3.9l0.2,0.2c1.3,1.2,2.1,1.9,2.1,3.6v0.6c0,1.1-0.3,1.5-0.8,2.4
			c-1.5,2.1-5.3,4.1-8.1,4.2l0,0h-0.9V212.7z M140,201.3c-0.8,1.1-2.6,6.3-2.6,7.9v0.3c0.4-0.1,0.6-0.2,0.9-0.3
			c0.6-0.2,1.2-0.4,2.3-1c2-1,2.5-1.3,3-2.3c0.2-0.3,0.3-0.6,0.3-0.9v-0.1v-0.1c0-0.1,0-0.2,0-0.2c0-0.1,0-0.5-0.9-0.9
			c-0.1-0.1-0.5-0.2-2.1-1.5C140.5,201.6,140.2,201.4,140,201.3z M143.2,187.3c-0.2,0-0.5,0.1-1,0.3c-0.7,0.2-1.7,1-2,1.3
			c-1.3,1.2-2,2.5-2,3.9c0,0.8,0.2,1.6,0.6,2.5c0.6,1.2,0.7,1.4,1.3,1.6c1.2,0.6,1.8,1,1.8,2c0,0.2,0,0.2,0.1,0.4
			c0.3-0.4,1-1.8,1.5-3.5c1.3-3.7,1.8-5.4,1.8-6.4s-1-1.7-1.3-1.9c-0.2-0.1-0.3-0.1-0.5-0.1h-0.3V187.3z"/>
		<path class="st2" d="M142.2,184.8c2.9,0.4,5.1,1.8,5.9,3.7c0.2,0.4,0.3,0.9,0.3,1.5c0,1.4-0.7,3.3-2.2,7.6l-1.6,4.2
			c1.7,1.5,2.4,2,2.4,3.7v0.5c0,1-0.2,1.3-0.7,2.2c-1.4,1.9-5,3.8-7.7,4h-0.8c-0.7,0-0.9-0.1-2.1-0.7c-1.1-0.7-1.6-1.7-1.6-3.1
			c0-0.7,0.1-1.6,0.4-2.6c0.4-1.7,2-5.6,2.6-6.5c0.2-0.4,0.4-0.7,0.4-0.8s-0.4-0.7-0.8-1.4c-0.7-1.6-1.3-3.3-1.6-4.9
			c0-1,0.2-1.9,0.7-2.8c0.8-1.5,2.6-3,3.9-4c0.9-0.4,1.2-0.5,1.9-0.5L142.2,184.8 M141.9,199.8c0.1,0,0.2-0.1,0.3-0.1
			s1.1-1.6,1.7-3.8c1.3-3.7,1.8-5.4,1.8-6.5c0-1-0.7-1.9-1.5-2.3c-0.3-0.2-0.5-0.2-0.7-0.2h-0.2c-0.3,0-0.6,0.1-1.2,0.3
			c-0.7,0.2-1.5,0.8-2.2,1.4c-1.5,1.4-2.2,2.8-2.2,4.3c0,0.8,0.2,1.8,0.7,2.7c0.6,1.1,0.8,1.5,1.5,1.8c1.2,0.6,1.5,0.9,1.5,1.6
			C141.4,199.5,141.6,199.7,141.9,199.8C141.8,199.8,141.8,199.8,141.9,199.8 M136.9,210.3c1.6-0.7,1.9-0.6,4-1.6
			c1.9-1,2.7-1.4,3.2-2.5c0.2-0.4,0.3-0.8,0.3-1.1c0-0.2,0.1-0.3,0.1-0.4c0-0.6-0.4-1-1.1-1.4c-0.4-0.2-1.2-0.8-2-1.5s-1.2-1-1.4-1
			h-0.1c-0.8,0.8-2.9,6.7-2.9,8.4v1.1 M142.2,183.8h-0.6c-0.9,0-1.4,0.1-2.4,0.6c-0.1,0-0.1,0.1-0.2,0.1c-1.6,1.3-3.3,2.7-4.2,4.3
			c-0.5,1-0.8,2.2-0.8,3.3c0,0.1,0,0.1,0,0.2c0.3,1.6,0.9,3.4,1.7,5.2c0,0,0,0.1,0.1,0.1c0.1,0.2,0.3,0.4,0.4,0.6
			c0.1,0.1,0.1,0.2,0.2,0.3v0.1l-0.1,0.2c-0.7,1.2-2.3,5.1-2.7,6.8c-0.3,1.1-0.4,2.1-0.4,2.8c0,1.8,0.7,3.1,2,4c0,0,0.1,0,0.1,0.1
			c1.2,0.6,1.6,0.8,2.5,0.8h0.8c0,0,0,0,0.1,0c3-0.2,6.8-2.2,8.4-4.4c0,0,0,0,0-0.1c0.6-0.9,0.8-1.5,0.9-2.6v-0.5v-0.1
			c0-1.9-0.9-2.8-2.2-4l1.3-3.6c1.6-4.2,2.3-6.4,2.3-8c0-0.6-0.1-1.2-0.4-1.9c-0.9-2.3-3.5-3.9-6.7-4.3
			C142.3,183.8,142.3,183.8,142.2,183.8L142.2,183.8z M140.5,189.2c0.8-0.6,1.4-1,1.8-1.2c0.5-0.2,0.7-0.3,0.9-0.3h0.2
			c0.1,0,0.1,0,0.1,0s0,0,0.1,0.1c0.5,0.3,1,0.9,1,1.5c0,0.9-0.5,2.6-1.7,6.2v0.1c-0.2,0.9-0.5,1.6-0.8,2.2c-0.3-0.6-0.9-1-1.8-1.5
			c0,0,0,0-0.1,0c-0.4-0.2-0.4-0.2-1-1.3c-0.4-0.8-0.6-1.5-0.6-2.2C138.6,191.5,139.2,190.4,140.5,189.2L140.5,189.2z M138,208.8
			c0.2-1.6,1.5-5.3,2.2-6.7c0.1,0.1,0.3,0.2,0.5,0.4c0,0,0,0,0.1,0c1.5,1.1,1.9,1.4,2.2,1.6c0.3,0.1,0.6,0.3,0.6,0.5l0,0
			c0,0,0,0,0,0.1v0.1c0,0.1,0,0.2,0,0.2c0,0.2,0,0.4-0.2,0.7c0,0,0,0,0,0.1c-0.4,0.8-0.8,1-2.8,2c-1.1,0.6-1.7,0.8-2.3,1
			C138.1,208.7,138,208.8,138,208.8L138,208.8z"/>
	</g>
	<g>
		<path class="st1" d="M150.2,215.1c-0.4,0-0.8-0.2-1.2-0.5c-0.3-0.3-0.7-0.9-0.7-1.3c0-1.9,8.9-23.2,13-31.3
			c1.5-2.9,2.1-3.9,3.1-3.9h0.1l0.4,0.1c0,0,0.1,0,0.1,0.1c0.4,0.2,0.8,0.7,1,1c0.2,0.2,0.3,0.5,0.3,0.8c0,0.4-0.2,0.7-0.5,1.1
			c-2.2,3.7-9.3,19.7-12.6,28.6l-1.6,4.4C151.4,214.7,150.9,215.1,150.2,215.1z"/>
		<path class="st2" d="M164.4,178.5l0.4,0.1c0.3,0.2,0.7,0.6,0.8,0.8s0.2,0.3,0.2,0.5s-0.1,0.4-0.4,0.8c-2.2,3.7-9.3,19.7-12.6,28.7
			l-1.6,4.4c-0.2,0.5-0.5,0.8-0.9,0.8c-0.3,0-0.6-0.1-0.9-0.4c-0.3-0.3-0.5-0.7-0.5-1c0-1.7,8.8-23,13-31.1
			C163.2,179.4,163.8,178.5,164.4,178.5 M164.4,177.5c-1.3,0-2,1.3-3.5,4.1c-3.9,7.6-13.1,29.4-13.1,31.6c0,0.6,0.4,1.3,0.8,1.7
			c0,0,0,0,0.1,0.1c0.5,0.4,1,0.6,1.6,0.6c0.9,0,1.6-0.6,1.9-1.5l1.6-4.3c3.3-8.8,10.3-24.8,12.6-28.5c0.3-0.4,0.5-0.8,0.5-1.4
			c0-0.4-0.1-0.7-0.4-1.1c-0.2-0.4-0.7-0.9-1.2-1.1c-0.1-0.1-0.2-0.1-0.3-0.1l-0.4-0.1C164.6,177.5,164.5,177.5,164.4,177.5
			L164.4,177.5z"/>
	</g>
	<g>
		<path class="st1" d="M169.5,213.2c-0.8,0-1.6-0.3-2.3-0.6c-2.6-1.4-4.4-6.2-4.4-11.6c0-1.3,0.1-2.2,0.2-3.1
			c0.8-6.8,3.2-12.3,5.2-14.3c0.9-1,2-1.6,3.3-1.6c1.2,0,2.4,0.5,3.2,1.4c2,2.2,2.6,7.8,2.6,12.4c0,0.9,0,1.8-0.1,2.7
			c-0.3,4.7-0.7,11.9-6.3,14.4C170.5,213,170,213.2,169.5,213.2z M171.9,186c-0.3,0-0.8,0.2-1.2,0.9l-0.1,0.1
			c-1.2,1-2.4,4.9-3.3,10.4c-0.3,1.2-0.3,2.4-0.3,3.4v0.9c0,0.6,0,1.1,0,1.6c0,3.8,1.1,6.7,2.5,6.7c3.5-0.9,3.7-5.6,4-10.2l0.1-1.1
			c0.1-1.4,0.2-2.8,0.2-4.3c0-3.5-0.1-6.2-1.1-7.9c0,0,0-0.1-0.1-0.1C172.4,186.2,172.2,186,171.9,186z"/>
		<path class="st2" d="M171.6,182.5c1.1,0,2.1,0.5,2.8,1.2c1.8,2,2.5,7.2,2.5,12c0,0.9,0,1.8-0.1,2.7c-0.3,4.9-0.8,11.7-6,14
			c-0.4,0.2-0.9,0.3-1.3,0.3c-0.7,0-1.5-0.3-2.1-0.5c-2.4-1.3-4.1-6-4.1-11.1c0-1,0-2,0.2-3c0.8-6.5,3.1-12.1,5-14.1
			C169.5,182.9,170.6,182.5,171.6,182.5 M169.5,210.6c4.2-1,4.2-6.7,4.5-11.8c0.1-1.6,0.2-3,0.2-4.3c0-3.6-0.1-6.4-1.2-8.2
			c-0.2-0.6-0.6-0.9-1.1-0.9s-1.1,0.4-1.6,1.1c-1.5,1.3-2.7,6-3.4,10.7c-0.3,1.1-0.3,2.4-0.3,3.5v0.9c0,0.6,0,1.1,0,1.6
			C166.5,207.5,167.7,210.6,169.5,210.6 M171.6,181.5c-1.4,0-2.7,0.6-3.7,1.8c-2.3,2.4-4.5,8.5-5.3,14.6c-0.2,0.9-0.2,1.9-0.2,3.2
			c0,5.7,1.8,10.5,4.6,12h0.1c0.7,0.3,1.5,0.6,2.5,0.6c0.5,0,1.1-0.1,1.6-0.3c5.9-2.6,6.4-10.3,6.7-14.8c0.1-0.9,0.1-1.8,0.1-2.7
			c0-2.2-0.2-9.8-2.8-12.7C174.2,182,172.9,181.5,171.6,181.5L171.6,181.5z M169.4,209.6c-0.8-0.2-1.9-2.3-1.9-6.2c0-0.5,0-1,0-1.6
			v-0.1v-0.9c0-1,0-2.2,0.3-3.3c0,0,0,0,0-0.1c1-6.4,2.3-9.4,3.1-10.1c0.1-0.1,0.1-0.1,0.2-0.2c0.3-0.5,0.7-0.7,0.8-0.7
			s0.1,0.1,0.1,0.2c0,0.1,0.1,0.2,0.1,0.2c1,1.5,1,4.2,1,7.6c0,1.5-0.1,2.8-0.2,4.2c0,0.4,0,0.8-0.1,1.1
			C172.7,204.4,172.5,208.7,169.4,209.6L169.4,209.6z"/>
	</g>
	<g>
		<path class="st1" d="M182.8,212.6c-0.1,0-0.1,0-0.2,0c-1.3-0.5-1.3-1.5-1.3-4.6v-1.3c0-6.5,1.3-21.5,2.6-22.8
			c0.4-0.4,0.7-0.5,1.5-0.7h0.1h0.5c0.6,0.2,1.2,0.5,1.5,0.9c0.2,0.3,0.4,0.5,0.4,0.9c0,0.3-0.1,0.5-0.3,0.8l-0.1,0.1
			c-1,1.9-2.7,16.3-2.7,22.8l0.2,2c0,0.8,0,1.7-0.9,1.7H184h-0.1c0,0-0.1,0-0.2,0c-0.2,0.1-0.4,0.1-0.8,0.1h-0.1V212.6z"/>
		<path class="st2" d="M185.5,183.6h0.4c0.4,0.1,1,0.4,1.2,0.7c0.2,0.2,0.3,0.4,0.3,0.6c0,0.2-0.1,0.4-0.3,0.7
			c-1.1,1.9-2.8,16.5-2.8,23l0.2,2.1c0,1.1-0.1,1.2-0.4,1.2h-0.2c-0.2,0-0.5,0.2-0.9,0.2h-0.2c-0.9-0.4-1-1.1-1-4.2v-1.3
			c0-7.2,1.4-21.4,2.4-22.5C184.5,183.9,184.6,183.8,185.5,183.6 M185.5,182.6c-0.1,0-0.2,0-0.3,0c-0.9,0.2-1.3,0.4-1.7,0.8
			c-1.6,1.7-2.7,18-2.7,23.2v1.3c0,3,0,4.4,1.6,5.1c0.1,0.1,0.3,0.1,0.4,0.1h0.2c0.4,0,0.7-0.1,0.9-0.2h0.1c0.1,0,0.1,0,0.2,0h0.1
			c1.3-0.1,1.3-1.5,1.3-2.2v-0.1l-0.2-2c0-6.8,1.8-20.9,2.7-22.5c0,0,0,0,0-0.1l0.1-0.1c0.2-0.4,0.3-0.7,0.3-1c0-0.6-0.3-1-0.5-1.2
			c-0.4-0.5-1.2-0.9-1.7-1c-0.1,0-0.1,0-0.2,0L185.5,182.6L185.5,182.6L185.5,182.6z"/>
	</g>
	<g>
		<path class="st1" d="M189.7,215.1c-0.4,0-0.8-0.2-1.2-0.5c-0.3-0.3-0.7-0.9-0.7-1.3c0-1.9,8.9-23.2,13-31.3
			c1.5-2.9,2.1-3.9,3.1-3.9h0.1l0.4,0.1c0,0,0.1,0,0.1,0.1c0.4,0.2,0.8,0.7,1,1c0.2,0.2,0.3,0.5,0.3,0.8c0,0.4-0.2,0.7-0.5,1.1
			c-2.2,3.7-9.3,19.7-12.6,28.6l-1.6,4.4C190.9,214.7,190.3,215.1,189.7,215.1z"/>
		<path class="st2" d="M203.9,178.5l0.4,0.1c0.3,0.2,0.7,0.6,0.8,0.8s0.2,0.3,0.2,0.5s-0.1,0.4-0.4,0.8c-2.2,3.7-9.3,19.7-12.6,28.7
			l-1.6,4.4c-0.2,0.5-0.5,0.8-0.9,0.8c-0.3,0-0.6-0.1-0.9-0.4c-0.3-0.3-0.5-0.7-0.5-1c0-1.7,8.8-23,13-31.1
			C202.6,179.4,203.2,178.5,203.9,178.5 M203.9,177.5c-1.3,0-2,1.3-3.5,4.1c-3.9,7.6-13.1,29.4-13.1,31.6c0,0.6,0.4,1.3,0.8,1.7
			c0,0,0,0,0.1,0.1c0.5,0.4,1,0.6,1.6,0.6c0.9,0,1.6-0.6,1.9-1.5l1.6-4.3c3.3-8.8,10.3-24.8,12.6-28.5c0.3-0.4,0.5-0.8,0.5-1.4
			c0-0.4-0.1-0.7-0.4-1.1c-0.2-0.4-0.7-0.9-1.2-1.1c-0.1-0.1-0.2-0.1-0.3-0.1l-0.4-0.1C204,177.5,204,177.5,203.9,177.5L203.9,177.5
			z"/>
	</g>
	<g>
		<path class="st1" d="M201.7,212.7c-0.7,0-1-0.2-1.4-0.5l-0.1-0.1c-0.7-0.6-1-1.1-1-1.6c0-0.6,0.5-1.4,1.5-2.4
			c4.8-5.2,8.8-11.5,10.7-16.9c0.4-1.2,0.7-2.8,0.7-4c0-0.7-0.1-0.9-0.1-0.9c-0.1-0.1-0.4-0.4-0.8-0.5c-0.1,0-0.3-0.1-0.5-0.1
			c-1.5,0-3.6,1.1-4.1,2.3c-0.4,0.7-0.9,0.9-1.2,0.9c-0.4,0-0.8-0.2-1.2-0.6c-0.4-0.5-0.7-1-0.7-1.5c0-0.8,0.4-1.5,1.3-2.3
			c1.4-1.3,3.2-2.1,4.9-2.1c1.5,0,2.7,0.3,3.9,0.9c2.5,1.5,2.9,3.9,2.9,5.1c0,1.3-0.3,2.9-1,5c-2.1,5-4.8,8.7-8.5,13.3l-0.6,0.8
			c-0.4,0.5-0.7,1-1,1.3c0.8-0.1,2-0.3,3.2-0.4c1.7-0.2,2.7-0.3,3.6-0.3c1.5,0,2.3,0.2,3.7,0.6c1.3,0.4,2,0.9,2.3,1.6
			c0.1,0.3,0.2,0.6,0.2,0.8s-0.1,0.9-1.1,0.9c-0.4,0-0.9-0.1-1.7-0.2c-1.3-0.3-2.2-0.4-3.3-0.4c-1.4,0-3.1,0.2-6.4,0.8
			C203.5,212.5,202.4,212.7,201.7,212.7z"/>
		<path class="st2" d="M209.7,182.8c1.3,0,2.4,0.2,3.6,0.9c1.9,1.2,2.6,3,2.6,4.7c0,1.3-0.4,2.9-1,4.8c-2,4.9-4.7,8.4-8.4,13.1
			c-1.5,2-2,2.6-2,2.9c0,0.1,0,0.1,0.1,0.1h0.3c0.4-0.1,2.1-0.4,3.7-0.5c1.6-0.2,2.7-0.3,3.5-0.3c1.5,0,2.2,0.2,3.6,0.6
			c1,0.4,1.7,0.7,2,1.3c0.1,0.2,0.1,0.4,0.1,0.5c0,0.3-0.2,0.4-0.6,0.4c-0.4,0-0.9-0.1-1.6-0.2c-1.3-0.3-2.2-0.4-3.4-0.4
			c-1.5,0-3.3,0.3-6.5,0.8c-2.3,0.4-3.3,0.6-4,0.6c-0.6,0-0.7-0.2-1.1-0.5c-0.4-0.4-0.8-0.8-0.8-1.2s0.4-1.1,1.3-2
			c5-5.4,9-11.8,10.8-17.1c0.4-1.3,0.7-3,0.7-4.2c0-0.5,0-1-0.2-1.2c-0.1-0.3-0.6-0.6-1.1-0.7c-0.2,0-0.4-0.1-0.7-0.1
			c-1.6,0-3.9,1.2-4.6,2.6c-0.2,0.4-0.5,0.6-0.8,0.6s-0.5-0.2-0.9-0.5c-0.3-0.4-0.5-0.7-0.5-1.1c0-0.6,0.4-1.2,1.1-2
			C206.5,183.5,208.2,182.8,209.7,182.8 M209.7,181.8c-1.9,0-3.8,0.8-5.3,2.2c-0.6,0.6-1.4,1.5-1.4,2.7c0,0.6,0.3,1.2,0.7,1.8
			l0.1,0.1c0.4,0.4,0.9,0.7,1.5,0.7c0.5,0,1.1-0.2,1.7-1.1c0,0,0,0,0-0.1c0.5-0.9,2.4-2,3.7-2c0.1,0,0.3,0,0.4,0.1
			c0.2,0,0.3,0.2,0.4,0.2c0,0.1,0,0.3,0,0.7c0,1.1-0.3,2.7-0.7,3.9c-1.9,5.3-5.9,11.6-10.6,16.7c-1,1.1-1.6,1.9-1.6,2.7
			c0,0.6,0.4,1.3,1.1,2c0,0,0,0,0.1,0l0.1,0.1c0.4,0.3,0.8,0.6,1.7,0.6c0.7,0,1.9-0.2,4.2-0.6c3.3-0.5,5-0.8,6.3-0.8
			c1,0,1.9,0.1,3.2,0.4c0,0,0,0,0.1,0c0.7,0.1,1.3,0.2,1.8,0.2c1.2,0,1.6-0.8,1.6-1.4c0-0.3-0.1-0.6-0.2-0.9v-0.1
			c-0.5-1-1.6-1.5-2.5-1.8c0,0,0,0-0.1,0c-1.4-0.4-2.3-0.7-3.8-0.7c-0.8,0-1.9,0.1-3.6,0.3c-0.6,0.1-1.3,0.1-2,0.2
			c0.1-0.1,0.2-0.2,0.2-0.3l0.6-0.8c3.7-4.6,6.5-8.3,8.5-13.3c0,0,0,0,0-0.1c0.7-2.1,1.1-3.8,1.1-5.2c0-2.3-1.1-4.3-3.1-5.5
			C212.6,182.1,211.3,181.8,209.7,181.8L209.7,181.8z"/>
	</g>
	<g>
		<path class="st1" d="M227.3,213.2c-0.8,0-1.6-0.3-2.3-0.6c-2.6-1.4-4.4-6.2-4.4-11.6c0-1.3,0.1-2.2,0.2-3.1
			c0.8-6.8,3.2-12.3,5.2-14.3c0.9-1,2-1.6,3.3-1.6c1.2,0,2.4,0.5,3.2,1.4c2,2.2,2.6,7.8,2.6,12.4c0,0.9,0,1.8-0.1,2.7
			c-0.3,4.7-0.7,11.9-6.3,14.4C228.3,213,227.8,213.2,227.3,213.2z M229.7,186c-0.3,0-0.8,0.2-1.2,0.9l-0.1,0.1
			c-1.2,1-2.4,4.9-3.3,10.4c-0.3,1.2-0.3,2.4-0.3,3.4v0.9c0,0.6,0,1.1,0,1.6c0,3.8,1.1,6.7,2.5,6.7c3.5-0.9,3.7-5.6,4-10.2l0.1-1.1
			c0.1-1.4,0.2-2.8,0.2-4.3c0-3.5-0.1-6.2-1.1-7.9c0,0,0-0.1-0.1-0.1C230.2,186.2,230,186,229.7,186z"/>
		<path class="st2" d="M229.4,182.5c1.1,0,2.1,0.5,2.8,1.2c1.8,2,2.5,7.2,2.5,12c0,0.9,0,1.8-0.1,2.7c-0.3,4.9-0.8,11.7-6,14
			c-0.4,0.2-0.9,0.3-1.3,0.3c-0.7,0-1.5-0.3-2.1-0.5c-2.4-1.3-4.1-6-4.1-11.1c0-1,0-2,0.2-3c0.8-6.5,3.1-12.1,5-14.1
			C227.3,182.9,228.4,182.5,229.4,182.5 M227.3,210.6c4.2-1,4.2-6.7,4.5-11.8c0.1-1.6,0.2-3,0.2-4.3c0-3.6-0.1-6.4-1.2-8.2
			c-0.2-0.6-0.6-0.9-1.1-0.9s-1.1,0.4-1.6,1.1c-1.5,1.3-2.7,6-3.4,10.7c-0.3,1.1-0.3,2.4-0.3,3.5v0.9c0,0.6,0,1.1,0,1.6
			C224.3,207.5,225.5,210.6,227.3,210.6 M229.4,181.5c-1.4,0-2.7,0.6-3.7,1.8c-2.3,2.4-4.5,8.5-5.3,14.6c-0.2,0.9-0.2,1.9-0.2,3.2
			c0,5.7,1.8,10.5,4.6,12h0.1c0.7,0.3,1.5,0.6,2.5,0.6c0.5,0,1.1-0.1,1.6-0.3c5.9-2.6,6.4-10.3,6.7-14.8c0.1-0.9,0.1-1.8,0.1-2.7
			c0-2.2-0.2-9.8-2.8-12.7C232,182,230.7,181.5,229.4,181.5L229.4,181.5z M227.2,209.6c-0.8-0.2-1.9-2.3-1.9-6.2c0-0.5,0-1,0-1.6
			v-0.1v-0.9c0-1,0-2.2,0.3-3.3c0,0,0,0,0-0.1c1-6.4,2.3-9.4,3.1-10.1c0.1-0.1,0.1-0.1,0.2-0.2c0.3-0.5,0.7-0.7,0.8-0.7
			s0.1,0.1,0.1,0.2c0,0.1,0.1,0.2,0.1,0.2c1,1.5,1,4.2,1,7.6c0,1.5-0.1,2.8-0.2,4.2c0,0.4,0,0.8-0.1,1.1
			C230.5,204.4,230.3,208.7,227.2,209.6L227.2,209.6z"/>
	</g>
	<g>
		<path class="st1" d="M236.4,212.7c-0.7,0-1-0.2-1.4-0.5l-0.1-0.1c-0.7-0.6-1-1.1-1-1.6c0-0.6,0.5-1.4,1.5-2.4
			c4.8-5.2,8.8-11.5,10.7-16.9c0.4-1.2,0.7-2.8,0.7-4c0-0.7-0.1-0.9-0.1-0.9c-0.1-0.1-0.4-0.4-0.8-0.5c-0.1,0-0.3-0.1-0.5-0.1
			c-1.5,0-3.6,1.1-4.1,2.3c-0.4,0.7-0.9,0.9-1.2,0.9c-0.5,0-0.9-0.3-1.2-0.6c-0.4-0.5-0.7-1-0.7-1.5c0-0.8,0.4-1.5,1.3-2.3
			c1.4-1.3,3.2-2.1,4.9-2.1c1.5,0,2.7,0.3,3.9,0.9c2.5,1.5,2.9,3.9,2.9,5.1c0,1.3-0.3,2.9-1,5c-2.1,5-4.8,8.7-8.5,13.3l-0.6,0.8
			c-0.4,0.5-0.7,1-1,1.3c0.8-0.1,2-0.3,3.2-0.4c1.7-0.2,2.7-0.3,3.6-0.3c1.5,0,2.3,0.2,3.7,0.6c1.3,0.4,2,0.9,2.3,1.6
			c0.1,0.3,0.2,0.6,0.2,0.8S253,212,252,212c-0.4,0-0.9-0.1-1.7-0.2c-1.3-0.3-2.2-0.4-3.3-0.4c-1.4,0-3.1,0.2-6.4,0.8
			C238.2,212.5,237.1,212.7,236.4,212.7z"/>
		<path class="st2" d="M244.4,182.8c1.3,0,2.4,0.2,3.6,0.9c1.9,1.2,2.6,3,2.6,4.7c0,1.3-0.4,2.9-1,4.8c-2,4.9-4.7,8.4-8.4,13.1
			c-1.5,2-2,2.6-2,2.9c0,0.1,0,0.1,0.1,0.1h0.3c0.4-0.1,2.1-0.4,3.7-0.5c1.6-0.2,2.7-0.3,3.5-0.3c1.5,0,2.2,0.2,3.6,0.6
			c1,0.4,1.7,0.7,2,1.3c0.1,0.2,0.1,0.4,0.1,0.5c0,0.3-0.2,0.4-0.6,0.4c-0.4,0-0.9-0.1-1.6-0.2c-1.3-0.3-2.2-0.4-3.4-0.4
			c-1.5,0-3.3,0.3-6.5,0.8c-2.3,0.4-3.3,0.6-4,0.6c-0.6,0-0.7-0.2-1.1-0.5c-0.4-0.4-0.8-0.8-0.8-1.2s0.4-1.1,1.3-2
			c5-5.4,9-11.8,10.8-17.1c0.4-1.3,0.7-3,0.7-4.2c0-0.5,0-1-0.2-1.2c-0.1-0.3-0.6-0.6-1.1-0.7c-0.2,0-0.4-0.1-0.7-0.1
			c-1.6,0-3.9,1.2-4.6,2.6c-0.2,0.4-0.5,0.6-0.8,0.6s-0.5-0.2-0.9-0.5c-0.3-0.4-0.5-0.7-0.5-1.1c0-0.6,0.4-1.2,1.1-2
			C241.1,183.5,242.8,182.8,244.4,182.8 M244.4,181.8c-1.9,0-3.8,0.8-5.3,2.2c-0.6,0.6-1.5,1.5-1.5,2.7c0,0.6,0.3,1.2,0.7,1.8
			l0.1,0.1c0.4,0.4,0.9,0.7,1.5,0.7c0.5,0,1.1-0.2,1.7-1.1c0,0,0,0,0-0.1c0.5-0.9,2.4-2,3.7-2c0.1,0,0.3,0,0.4,0.1
			c0.2,0,0.3,0.2,0.4,0.2c0,0.1,0,0.3,0,0.7c0,1.1-0.3,2.7-0.7,3.9c-1.9,5.3-5.9,11.6-10.6,16.7c-1,1.1-1.6,1.9-1.6,2.7
			c0,0.6,0.4,1.3,1.1,2c0,0,0,0,0.1,0l0.1,0.1c0.4,0.3,0.8,0.6,1.7,0.6c0.7,0,1.9-0.2,4.2-0.6c3.3-0.5,5-0.8,6.3-0.8
			c1,0,1.9,0.1,3.2,0.4c0,0,0,0,0.1,0c0.7,0.1,1.3,0.2,1.8,0.2c1.2,0,1.6-0.8,1.6-1.4c0-0.3-0.1-0.6-0.2-0.9v-0.1
			c-0.5-1-1.6-1.5-2.5-1.8c0,0,0,0-0.1,0c-1.4-0.4-2.3-0.7-3.8-0.7c-0.8,0-1.9,0.1-3.6,0.3c-0.6,0.1-1.3,0.1-2,0.2
			c0.1-0.1,0.2-0.2,0.2-0.3l0.6-0.8c3.7-4.6,6.5-8.3,8.5-13.3c0,0,0,0,0-0.1c0.7-2.1,1.1-3.8,1.1-5.2c0-2.3-1.1-4.3-3.1-5.5
			C247.2,182.1,246,181.8,244.4,181.8L244.4,181.8z"/>
	</g>
	<g>
		<path class="st1" d="M261.8,211.8c-1.7,0-2.5-0.1-3.1-0.2c-2.6-0.8-4.2-2.3-4.7-4.5l-0.1-0.3c0-0.8,0.5-1.2,1.2-1.2h0.5
			c0.1,0,0.1,0,0.1,0c0.5,0.2,0.9,0.7,1.3,1.4c0.7,0.9,1.2,1.2,3.3,1.5c1.2,0,4.3-0.5,5.7-4.2c0.5-0.9,0.8-3,0.9-3.7v-0.1
			c0-2.1-2.3-4.9-4.8-4.9c-0.8,0-1.7,0.1-2.8,0.3c-0.5,0.1-0.9,0.1-1.3,0.1c-1.4,0-2.2-0.5-3-2c-0.1-0.3-0.2-0.6-0.2-1
			c0-0.6,0.2-1.6,0.6-3.6c0.9-3.6,1.1-4.4,1.5-4.9c0-0.1,0.1-0.1,0.1-0.1c0.2-0.1,0.5-0.3,2.2-0.3h3.2c5.4,0.2,7.2,0.4,8,1
			c0.6,0.4,1,2.2,1,2.6c0,0.4-0.2,0.7-0.3,0.8c-0.3,0.3-0.6,0.3-1,0.3l-1.5-0.1c-0.7-0.1-2.1-0.1-3.6-0.1c-1.3,0-2.7-0.1-3.9-0.1
			c0,0-1.2,0-1.3,0c-0.2,0.8-0.6,3.1-0.7,4.1l2.2-0.1c2.8,0,4.9,0.9,6.7,2.7c1.9,1.9,2.9,4.3,2.9,6.9c0,2.7-1.1,5.3-3.2,7.3
			c-0.7,0.7-1.7,1.4-2.4,1.8C264.2,211.6,263.7,211.7,261.8,211.8C261.9,211.8,261.8,211.8,261.8,211.8z"/>
		<path class="st2" d="M262.3,184.5c5,0.2,7,0.4,7.7,0.9c0.4,0.3,0.8,1.8,0.8,2.2c0,0.2,0,0.4-0.2,0.5c-0.1,0.1-0.3,0.2-0.7,0.2
			l-1.4-0.1c-1.2-0.1-4.8-0.1-7.4-0.3H260c-0.3,0-0.5,0-0.6,0c-0.1,0.1-0.9,4.8-0.9,5.1l2.8-0.1c2.5,0,4.6,0.8,6.3,2.6
			c1.9,1.9,2.8,4.2,2.8,6.5c0,2.5-1,4.9-3,7c-0.6,0.6-1.6,1.4-2.3,1.7c-1.1,0.5-1.5,0.6-3.3,0.7c-1.3,0-2.4,0-2.9-0.2
			c-2.5-0.8-3.9-2.2-4.4-4.1v-0.3c0-0.4,0.3-0.7,0.7-0.7h0.4c0.4,0.2,0.7,0.5,1.1,1.2c0.9,1.1,1.5,1.4,3.6,1.7
			c1.7,0,4.8-0.7,6.2-4.5c0.6-1.1,0.9-3.8,0.9-3.8v-0.2c0-2.4-2.6-5.4-5.3-5.4c-0.8,0-1.8,0.1-2.9,0.3c-0.5,0.1-0.9,0.1-1.2,0.1
			c-1.1,0-1.8-0.4-2.6-1.8c-0.1-0.2-0.2-0.4-0.2-0.7c0-0.5,0.2-1.5,0.6-3.5c0.9-3.5,1.1-4.3,1.4-4.8c0.1-0.1,0.5-0.2,1.9-0.2
			L262.3,184.5 M262.3,183.5h-3.2c-1.6,0-2.1,0.1-2.4,0.3c-0.1,0.1-0.2,0.2-0.3,0.3c-0.4,0.6-0.6,1.3-1.6,5.1
			c-0.5,2.1-0.6,3.1-0.6,3.7c0,0.5,0.1,0.9,0.2,1.1c0,0,0,0.1,0.1,0.1c0.9,1.6,1.9,2.3,3.5,2.3c0.4,0,0.9,0,1.4-0.1
			c1.1-0.2,2-0.3,2.7-0.3c2.2,0,4.3,2.5,4.3,4.4v0.1c-0.1,1-0.4,2.8-0.8,3.4c0,0,0,0.1-0.1,0.1c-1.2,3.2-3.7,3.8-5.2,3.8
			c-1.8-0.3-2.2-0.5-2.8-1.2c-0.4-0.8-0.9-1.3-1.5-1.6c-0.1,0-0.2-0.1-0.3-0.1h-0.4h-0.1c-1,0-1.7,0.7-1.7,1.7c0,0.1,0,0.1,0,0.2
			v0.3c0,0,0,0,0,0.1c0.6,2.3,2.3,4,5,4.9c0.6,0.2,1.5,0.3,3.2,0.3c1.9,0,2.5-0.2,3.7-0.8c0.8-0.4,1.9-1.2,2.6-1.9
			c2.1-2.1,3.3-4.9,3.3-7.7c0-2.7-1.1-5.2-3.1-7.2c-1.8-1.9-4.2-2.8-7.1-2.8l-1.7,0.1c0.2-1,0.4-2.3,0.6-3.1h0.9
			c1.2,0.1,2.6,0.1,3.9,0.1c1.5,0,2.9,0.1,3.5,0.1l1.4,0.1h0.1c0.4,0,1-0.1,1.4-0.5c0.2-0.2,0.5-0.6,0.5-1.2c0-0.3-0.3-2.4-1.2-3
			C269.8,184,267.9,183.7,262.3,183.5C262.4,183.5,262.3,183.5,262.3,183.5L262.3,183.5z"/>
	</g>
</g>
<g>
	<g>
		<path class="st1" d="M102.4,85.1c-2,0-3.5-0.3-4.7-0.8c-4.5-1.8-6.8-4.2-8.2-8.8c-1.1-4.2-1.7-9.6-1.7-15.8
			c0-14.8,2.9-33.6,5.9-44.6c1.1-4,2.2-6.4,4.7-6.4c1,0,2,0.4,3.3,1c2,1.1,2.8,2.4,2.8,4.3c0,0.7-0.1,1.4-0.3,2.1L104,17
			c-3.6,16.5-4.9,26.8-5.4,40.9l-0.1,3.8c0,11.5,1.8,15.8,2.7,16.1c4.3,0,14.9-3.6,19.6-6.7l0.5-0.3c2.7-1.7,3.7-2.3,5.1-2.3
			c0.6,0,1.1,0.1,1.8,0.3c3.3,1.1,4,2.6,4,3.5c0,1.3-1,2.6-3.2,4.2C122.4,81.7,109.7,85.1,102.4,85.1z"/>
		<path class="st2" d="M98.3,9.6c0.8,0,1.6,0.3,2.7,0.9c1.5,0.9,2.3,1.8,2.3,3.6c0,0.8-0.2,1.6-0.4,2.7c-3.6,16.7-4.9,27-5.4,41
			l-0.1,3.8c0,11.1,1.6,17,3.6,17c4.6,0,15.5-3.8,20.2-6.9c2.9-1.8,3.8-2.5,4.9-2.5c0.4,0,0.9,0.1,1.4,0.3c2.2,0.8,3.4,1.7,3.4,2.7
			s-1,2.1-2.9,3.6c-6,4.6-18.4,8.3-25.8,8.3c-1.8,0-3.2-0.2-4.3-0.7c-4.1-1.6-6.3-3.7-7.7-8.3c-1.1-4.1-1.6-9.5-1.6-15.5
			c0-15,3-33.6,5.8-44.4C95.7,11.3,96.7,9.6,98.3,9.6 M98.3,7.9c-3.5,0-4.7,3.3-5.7,7.1c-2.9,11-5.9,29.9-5.9,44.7
			c0,6.3,0.6,11.8,1.7,16c0,0,0,0,0,0.1c1.5,4.9,4,7.6,8.8,9.4c1.3,0.6,3,0.9,5.2,0.9c7.4,0,20.4-3.6,27.2-8.8
			c1.7-1.3,3.5-2.9,3.5-4.9c0-1.3-0.8-3-4.7-4.3c-0.8-0.3-1.5-0.4-2.2-0.4c-1.7,0-2.9,0.8-5.7,2.5l-0.4,0.3
			c-4.3,2.8-14.2,6.3-18.6,6.5c-0.7-1-2.1-5.1-2.1-15.3l0.1-3.7c0.4-14.1,1.8-24.4,5.4-40.8c0.1-0.3,0.1-0.5,0.1-0.8
			c0.2-0.9,0.3-1.5,0.3-2.3c0-2.2-1-3.8-3.2-5.1c0,0,0,0-0.1,0C100.7,8.3,99.6,7.9,98.3,7.9L98.3,7.9z"/>
	</g>
	<g>
		<path class="st1" d="M152.9,83.9c-2.6,0-5-0.5-7.3-1.6c-3.8-1.7-6.1-3.9-8.4-8.2c-3.9-7.6-6.5-21.7-6.5-35.4c0-3,0.2-5.9,0.4-8.9
			c0.9-8.3,2-12.5,3.7-14.9c0.8-1.1,2.2-1.6,3.9-1.6c3.1,0,6.4,1.8,7.7,4.3c0,0.1,0.1,0.2,0.1,0.3l0.2,1.1c0,0.1,0,0.1,0,0.2
			c0,1.5-1.1,2.7-2.7,2.7c-0.5,0.6-1.6,3.8-1.6,19.6c0,13.9,0.7,19.3,3.6,27.6c2.1,5.8,3.9,7,5,7.1l0.5,0.1c3-0.1,8.4-4,11.4-9.8
			c4.5-8.2,9.4-34.7,9.4-50.6c0-2.7-0.2-5.2-0.5-7.1V8.8c0-0.9,0.6-1.9,1.9-2.4c0.6-0.3,1.3-0.4,2.1-0.4c2.1,0,4.1,1,5.5,2.8
			c0.4,0.4,1.6,1.8,1.6,9.9c0,7.8-1.2,18.8-3.2,29.4c-2.1,11.2-4.2,18-7,23.1C168.3,79,160.8,83.9,152.9,83.9z"/>
		<path class="st2" d="M175.8,6.7c1.6,0,3.4,0.9,4.6,2.5c1,1.1,1.4,4.6,1.4,9.4c0,7.5-1.1,18.2-3.2,29.3
			c-2.1,10.8-4.2,17.9-6.9,22.8c-4.2,7.7-11.5,12.4-18.8,12.4c-2.4,0-4.6-0.4-6.8-1.5c-3.6-1.6-5.7-3.6-8-7.7
			c-3.8-7.5-6.4-21.6-6.4-35c0-3,0.2-6,0.4-8.8c0.9-7.8,1.9-12.2,3.5-14.4c0.7-0.9,1.8-1.2,3.1-1.2c2.5,0,5.6,1.5,6.8,3.8l0.2,1.1
			c0,1.1-0.8,1.9-1.9,1.9c-1.6,0-2.4,6.7-2.4,20.4c0,14.2,0.8,19.7,3.6,27.8c1.9,5.1,3.7,7.6,5.8,7.7l0.5,0.1
			c3.7,0,9.5-4.6,12.4-10.3c4.7-8.7,9.5-35.5,9.5-50.9c0-2.9-0.2-5.4-0.5-7.3c0-0.6,0.4-1.3,1.3-1.6C174.7,6.8,175.2,6.7,175.8,6.7
			 M175.8,5c-0.9,0-1.8,0.2-2.5,0.5c-1.7,0.6-2.4,2.1-2.4,3.2c0,0.1,0,0.2,0,0.3c0.3,2,0.5,4.4,0.5,7c0,15.8-4.9,42.1-9.3,50.1
			c-2.7,5.2-7.7,9.1-10.4,9.3l-0.3-0.1c-0.1,0-0.1,0-0.2,0c-0.3,0-1.9-0.4-4.1-6.5c-2.8-8.2-3.5-13.6-3.5-27.3
			c0-13.6,0.8-17.6,1.3-18.7c1.8-0.3,3-1.7,3-3.5c0-0.1,0-0.2,0-0.3l-0.2-1.1c0-0.2-0.1-0.3-0.2-0.4c-1.5-2.7-5.2-4.8-8.6-4.8
			c-2.1,0-3.7,0.7-4.7,2c0,0,0,0,0,0.1c-1.8,2.5-2.9,6.7-3.8,15.2c0,0,0,0,0,0.1c-0.2,3-0.4,6-0.4,9c0,13.7,2.6,28.2,6.5,35.7
			c0,0,0,0,0,0.1c2.5,4.5,4.9,6.7,8.9,8.5c2.4,1.1,5,1.7,7.8,1.7c8.3,0,16.2-5.2,20.6-13.4c2.8-5.2,4.9-12.1,7.1-23.3
			c2-10.6,3.2-21.7,3.2-29.5c0-7.4-1-9.5-1.8-10.4C180.5,6.2,178.2,5,175.8,5L175.8,5z"/>
	</g>
	<g>
		<path class="st1" d="M194.5,92c-0.8,0-1.8-0.2-2.9-0.5c-3.7-1-4.7-2.9-4.7-8.8l0.2-5.4c0.9-17.4,5.1-37.5,10.5-50.1
			c2.6-6,4.6-8.8,6.5-9.5c0.1,0,0.1,0,0.2-0.1h0.2c0.5-0.1,0.9-0.2,1.5-0.2c2.3,0,4.8,1,6.6,2.7c3.9,3.7,5.3,8.4,8.6,23.9
			c3.1,14.2,5.6,23.9,7,27.6c0.2,0.6,0.6,1.5,0.8,2c0.2-0.3,0.5-0.9,0.9-1.8c2.8-5.8,3.9-22.3,4.7-34.4c0.8-11.8,1.1-15.6,2.1-16.5
			l0.1-0.1c0.7-0.4,1.4-0.7,2.4-0.7c1.8,0,3.8,0.7,4.9,1.8l0.2,0.2c0.8,0.8,1.2,1.4,1.2,3.9c0,2.4-0.3,7-0.9,15.9v0.6
			c-1.9,31.1-3.4,36.6-10.6,39.5c-1.1,0.4-2.4,0.7-3.7,0.7c-4,0-7.9-2.1-10.1-5.3c-2.4-3.7-6-16.8-9.1-33.3c-1-5.4-2.3-11-3-13.7
			c-1.7,4.1-5.1,14.9-6.8,23.3c-2.2,10.3-3.7,22.1-3.7,29.2c0,3.6,0.4,4.8,0.6,5.2c0.3,0.3,0.5,0.9,0.5,1.4
			C198.5,90.9,196.9,92,194.5,92z"/>
		<path class="st2" d="M206,18.3c1.9,0,4.2,0.9,5.8,2.5c3.6,3.4,5.1,7.7,8.4,23.5c2.6,12.1,5.4,23.5,7,27.6c0.8,2,1.2,3,1.8,3
			c0.4,0,1-0.9,1.9-2.8c4.7-10,4.6-48.8,6.6-50.6c0.4-0.3,1-0.4,1.8-0.4c1.4,0,3.2,0.6,4.2,1.5c0.7,0.7,1.1,0.9,1.1,3.5
			c0,2.5-0.3,7-1,16.4c-1.9,30.4-3.3,36.1-10,38.8c-1,0.3-2.1,0.6-3.3,0.6c-3.5,0-7.1-1.8-9.2-4.9c-2.4-3.7-6-17.3-9-33
			c-1.3-7.4-3.4-15.9-3.7-15.9c-1.1,0-5.9,15.1-8,25.4c-2.3,10.6-3.7,22.5-3.7,29.4c0,2.7,0.2,4.7,0.8,5.6c0.2,0.3,0.3,0.7,0.3,0.9
			c0,1.1-1.2,1.9-3.1,1.9c-0.8,0-1.6-0.2-2.5-0.4c-3.1-0.9-4.1-2.1-4.1-7.9l0.2-5.4c0.9-17.3,5.1-37.3,10.4-49.9
			c2.5-5.8,4.4-8.5,5.9-9.1C205,18.4,205.5,18.3,206,18.3 M206,16.6c-0.7,0-1.2,0.1-1.7,0.2h-0.2c-0.1,0-0.3,0.1-0.4,0.1
			c-2.2,0.8-4.2,3.7-7,10c-5.4,12.7-9.7,32.9-10.6,50.4l-0.2,5.4c0,0,0,0,0,0.1c0,5.6,0.8,8.2,5.4,9.5c1.2,0.3,2.3,0.6,3.2,0.6
			c3,0,5.1-1.5,5.1-3.6c0-0.6-0.2-1.3-0.6-1.8c-0.1-0.2-0.5-1.2-0.5-4.7c0-7,1.5-19,3.7-29c1.4-6.8,3.8-15.1,5.6-20.2
			c0.7,2.9,1.6,6.9,2.2,10.6c2.4,12.6,6.2,29,9.3,33.6c2.4,3.6,6.6,5.8,11,5.8c1.5,0,2.9-0.3,4.1-0.7l0,0
			c8.1-3.3,9.3-10.6,11.1-40.3V42c0.6-9,1-13.5,1-16c0-2.7-0.4-3.5-1.4-4.5l-0.1-0.2c-1.3-1.3-3.6-2.1-5.7-2.1c-1.1,0-2.1,0.3-3,0.8
			c-0.1,0.1-0.2,0.1-0.3,0.2c-1.1,1-1.4,3.3-2.4,17c-0.8,11.8-1.9,28.1-4.5,33.9c-1.4-3.6-3.9-13.3-6.9-27.3
			c-3.3-15.7-4.8-20.5-8.8-24.4C211.4,17.7,208.6,16.6,206,16.6L206,16.6z"/>
	</g>
	<g>
		<path class="st1" d="M291,80.1c-2.1,0-3.5-0.8-3.7-2.1c-1-4.9-1.7-9.9-2.4-14.7c-0.4-3.1-0.8-6.3-1.4-9.4l-16.5,2l-5.2,20.5
			c-0.1,0.3-0.5,0.6-0.9,0.7l-2.6,0.2c-3.8,0-4.8-2-4.9-3.6l-0.1-0.9v-0.1c0-3,1.5-9.1,2.5-13c0.3-1.1,0.6-2.3,0.7-3
			c-0.4,0-0.8-0.1-1.1-0.2c-2-0.2-3.7-1.6-3.7-3.3c0-0.9,0.6-3.2,6.5-3.9c0.5-0.1,1-0.7,3.1-8.3c4.6-15.4,10.5-26.3,14.2-30.1
			c1.5-1.8,3.2-2.7,5-2.7c0.6,0,1.2,0.1,1.9,0.3c4.8,2.1,5.7,5.9,9.1,26.6l1.8,10.4h1.3c0.2,0,0.4,0.1,0.6,0.2
			c1.2,0.7,2.2,2.4,2.2,3.9c0,0.7-0.3,1.2-0.5,1.6c0,0.1-0.1,0.1-0.1,0.2c-0.5,0.5-1.4,0.8-2.8,0.9c0.2,1.2,0.4,2.7,0.6,4.4
			c0.8,6.6,2.1,16.6,2.9,18.8c0,0.1,0,0.2,0,0.3v0.3C297.4,78.6,293.7,80.1,291,80.1z M279.6,21.3c-0.8,1.5-2,4.2-3.6,8.6
			c-0.3,0.9-0.7,2-1.2,3.3c-1.5,4.1-4.5,12-5.5,14.9l13.3-1.2c-0.2-1.3-0.4-3.3-0.7-5.8C281.4,35.3,280.3,25.6,279.6,21.3z"/>
		<path class="st2" d="M280.3,9c0.5,0,1,0.1,1.5,0.3c4.2,1.8,5.2,5.5,8.5,25.9l2,11.2h2.2c1,0.6,1.8,2,1.8,3.1
			c0,0.4-0.2,0.9-0.4,1.2c-0.4,0.4-2.3,0.7-3.1,0.8c0.8,5.6,2.5,21.2,3.6,24.1v0.3c0,1.9-3.1,3.2-5.4,3.2c-1.3,0-2.5-0.3-2.7-1.4
			c-1.8-8.3-2.4-16.7-3.8-24.9L266.4,55L261,76.1l-2.6,0.2c-2,0-3.6-0.6-3.8-2.8l-0.1-0.9c0-4.5,3.3-15.7,3.3-16.8
			c0-0.1-1.3-0.1-2.1-0.3c-1.5-0.1-2.9-1.2-2.9-2.5c0-1.2,1.4-2.6,5.6-3c1.1-0.2,1.5-0.3,4-8.9c4.6-15.9,10.5-26.2,13.8-29.6
			C277.1,10.2,278.6,9,280.3,9 M268,49l15.7-1.4c-0.5-4.4-3.1-28.8-3.6-28.8c-0.4,0-2.3,3.4-5.1,10.7C273.4,34,268,48.2,268,49
			 M280.3,7.3c-2.1,0-4,1-5.8,3c-3.8,4-9.7,14.9-14.3,30.5c-0.5,1.9-1.9,6.6-2.5,7.7c-6.4,0.8-7.1,3.5-7.1,4.7c0,2.1,2,3.9,4.5,4.1
			h0.1c-0.2,0.7-0.3,1.4-0.5,2.1c-1,4.3-2.5,10.1-2.5,13.2c0,0.1,0,0.1,0,0.2l0.1,0.9c0.2,1.6,1.2,4.4,5.8,4.4c0.1,0,0.1,0,0.2,0
			l2.6-0.2c0.9-0.1,1.6-0.6,1.8-1.4l5.1-20l14.8-1.8c0.5,2.8,0.8,5.8,1.2,8.5c0.6,4.8,1.3,9.8,2.4,14.8c0.4,1.7,2.2,2.8,4.7,2.8
			c3.5,0,7.4-2.1,7.4-4.9v-0.3c0-0.2,0-0.3-0.1-0.5c-0.8-2.1-2.1-12.4-2.9-18.6c-0.2-1.4-0.3-2.6-0.5-3.6c1-0.2,1.9-0.5,2.4-1.1
			c0.1-0.1,0.2-0.2,0.2-0.3c0.3-0.5,0.7-1.1,0.7-2c0-1.7-1.1-3.7-2.6-4.5c-0.3-0.2-0.7-0.3-1.1-0.3H294l-1.7-9.7
			c-3.4-21.1-4.4-25.1-9.5-27.2c0,0-0.1,0-0.2-0.1C281.8,7.5,281.1,7.3,280.3,7.3L280.3,7.3z M270.7,47.1c1.2-3.4,3.7-10,5-13.6
			c0.5-1.4,0.9-2.5,1.2-3.3c0.8-2.1,1.5-3.9,2.1-5.3c0.6,4.9,1.4,11.8,1.9,16.4c0.2,2,0.4,3.7,0.6,4.9L270.7,47.1L270.7,47.1z"/>
	</g>
</g>
</svg>
